<svg xmlns="http://www.w3.org/2000/svg" viewBox="0 0 318.65 68.27"><defs><style>.cls-1{fill:#6f8296;}.cls-2{fill:#fee000;fill-rule:evenodd;}.cls-3{fill:#0b3b75;}</style></defs><title>prensab1</title><g id="Layer_2" data-name="Layer 2"><g id="Layer_1-2" data-name="Layer 1"><path class="cls-1" d="M.81,55.72V65H0V54.32H.81L7,63.57V54.32h.81V65H7Z"/><path class="cls-1" d="M15.76,64.29a2.68,2.68,0,0,1-2,.8,2.69,2.69,0,0,1-2-.8,3.93,3.93,0,0,1-.9-2.91,3.92,3.92,0,0,1,.9-2.9,2.69,2.69,0,0,1,2-.8,2.68,2.68,0,0,1,2,.8,3.92,3.92,0,0,1,.9,2.9A3.93,3.93,0,0,1,15.76,64.29ZM15.25,59a2.06,2.06,0,0,0-1.5-.61,2.09,2.09,0,0,0-1.5.61,3.35,3.35,0,0,0-.64,2.41,3.36,3.36,0,0,0,.64,2.42,2.09,2.09,0,0,0,1.5.61,2.06,2.06,0,0,0,1.5-.61,3.37,3.37,0,0,0,.65-2.42A3.35,3.35,0,0,0,15.25,59Z"/><path class="cls-1" d="M19.71,63.11V58.34h-1v-.57h1V55.46h.76v2.31h1.64v.57H20.47v4.78c0,.77.35,1.2,1.11,1.2h.53V65h-.66A1.69,1.69,0,0,1,19.71,63.11Z"/><path class="cls-1" d="M24.69,54.32h.94v1h-.94Zm.09,3.45h.76V65h-.76Z"/><path class="cls-1" d="M29.82,65h-.77V58.34h-1v-.57h1V56.21a1.69,1.69,0,0,1,1.74-1.89h.66V55h-.52c-.77,0-1.11.44-1.11,1.2v1.58h1.63v.57H29.82Zm3.45-10.68h.94v1h-.94Zm.09,3.45h.76V65h-.76Z"/><path class="cls-1" d="M40.17,65.09c-2,0-3.18-1.41-3.18-3.71s1.2-3.7,3.18-3.7a2.81,2.81,0,0,1,2.38,1.11l-.52.48a2.22,2.22,0,0,0-1.86-.91,2.16,2.16,0,0,0-1.92,1,4.51,4.51,0,0,0,0,4.13,2.16,2.16,0,0,0,1.92,1A2.27,2.27,0,0,0,42,63.5l.52.48A2.81,2.81,0,0,1,40.17,65.09Z"/><path class="cls-1" d="M49.36,64.28a2.69,2.69,0,0,1-2.2.81A2.65,2.65,0,0,1,45,64.43,2,2,0,0,1,44.5,63c0-1.32,1-2.08,2.52-2.08h2.34v-.82c0-1.15-.55-1.76-2-1.76a2.06,2.06,0,0,0-2,.91l-.56-.48a2.75,2.75,0,0,1,2.55-1.11c1.92,0,2.81.85,2.81,2.37v5h-.77Zm-2.25-2.73c-1.23,0-1.84.48-1.84,1.45s.57,1.41,1.89,1.41a2.38,2.38,0,0,0,1.8-.55,1.87,1.87,0,0,0,.4-1.38v-.93Z"/><path class="cls-1" d="M53.53,63.11V58.34h-1v-.57h1V55.46h.77v2.31h1.63v.57H54.3v4.78c0,.77.34,1.2,1.11,1.2h.52V65h-.66A1.69,1.69,0,0,1,53.53,63.11Z"/><path class="cls-1" d="M58.51,54.32h1v1h-1Zm.09,3.45h.77V65H58.6Z"/><path class="cls-1" d="M67.15,64.29a2.68,2.68,0,0,1-2,.8,2.73,2.73,0,0,1-2-.8,4,4,0,0,1-.9-2.91,4,4,0,0,1,.9-2.9,2.73,2.73,0,0,1,2-.8,2.68,2.68,0,0,1,2,.8,3.92,3.92,0,0,1,.9,2.9A3.93,3.93,0,0,1,67.15,64.29ZM66.64,59a2.06,2.06,0,0,0-1.5-.61,2.09,2.09,0,0,0-1.5.61A3.35,3.35,0,0,0,63,61.38a3.36,3.36,0,0,0,.64,2.42,2.09,2.09,0,0,0,1.5.61,2.06,2.06,0,0,0,1.5-.61,3.37,3.37,0,0,0,.65-2.42A3.35,3.35,0,0,0,66.64,59Z"/><path class="cls-1" d="M75.72,60.52c0-1.4-.69-2.16-2-2.16a1.9,1.9,0,0,0-2,2.16V65h-.76V57.77h.76v.85a2.66,2.66,0,0,1,2.13-.94,2.62,2.62,0,0,1,1.92.69,2.67,2.67,0,0,1,.75,2V65h-.76Z"/><path class="cls-1" d="M86.74,65.09a4.54,4.54,0,0,1-3.55-1.41l.57-.57a3.74,3.74,0,0,0,3,1.26c1.69,0,2.74-.81,2.74-2.21a1.89,1.89,0,0,0-.58-1.5,2.63,2.63,0,0,0-1.55-.57l-1.24-.19a3.63,3.63,0,0,1-1.91-.78,2.47,2.47,0,0,1-.84-2c0-1.79,1.26-2.92,3.32-2.92a4.18,4.18,0,0,1,3.07,1.16l-.52.52a3.4,3.4,0,0,0-2.6-1c-1.56,0-2.47.84-2.47,2.2a1.74,1.74,0,0,0,.55,1.4,3.71,3.71,0,0,0,1.59.66l1.16.18a3.16,3.16,0,0,1,1.9.71,2.58,2.58,0,0,1,.93,2.06C90.34,64,89,65.09,86.74,65.09Z"/><path class="cls-1" d="M94,67.8a2,2,0,0,1-1.37.47h-.36v-.68h.29c.82,0,1.06-.27,1.32-1l.58-1.6-2.64-7.23h.84l2.18,6.33L97,57.77h.84L94.48,67A1.88,1.88,0,0,1,94,67.8Z"/><path class="cls-1" d="M102.1,65.09a3.93,3.93,0,0,1-2.92-1l.52-.52a3.15,3.15,0,0,0,2.37.88c1.43,0,2.18-.49,2.18-1.47,0-.76-.42-1.11-1.38-1.21l-1.2-.11c-1.46-.12-2.18-.75-2.18-1.89s1-2,2.6-2a4.22,4.22,0,0,1,2.53.76l-.51.51a3.36,3.36,0,0,0-2-.61c-1.2,0-1.85.49-1.85,1.39s.45,1.11,1.47,1.22l1.17.1c1.2.12,2.12.48,2.12,1.89S103.89,65.09,102.1,65.09Z"/><path class="cls-1" d="M107.7,63.11V58.34h-1v-.57h1V55.46h.76v2.31h1.64v.57h-1.64v4.78c0,.77.35,1.2,1.11,1.2h.53V65h-.66A1.69,1.69,0,0,1,107.7,63.11Z"/><path class="cls-1" d="M115.42,64.4a2.51,2.51,0,0,0,2-.87L118,64a3.3,3.3,0,0,1-2.61,1.11c-2,0-3.08-1.29-3.08-3.71s1.08-3.7,2.9-3.7,2.89,1.3,2.89,3.52v.35h-5C113.07,63.4,113.88,64.4,115.42,64.4Zm1.65-4.83a2,2,0,0,0-1.87-1.21,2,2,0,0,0-1.88,1.21,3.94,3.94,0,0,0-.25,1.37h4.26A3.26,3.26,0,0,0,117.07,59.57Z"/><path class="cls-1" d="M130.54,60.52c0-1.4-.69-2.16-2-2.16a1.88,1.88,0,0,0-2,2V65h-.77V60.52c0-1.4-.69-2.16-2-2.16a1.9,1.9,0,0,0-2,2.16V65h-.77V57.77h.77v.85a2.69,2.69,0,0,1,2.14-.94A2.46,2.46,0,0,1,126.18,59a2.77,2.77,0,0,1,2.46-1.32,2.72,2.72,0,0,1,1.9.69,2.67,2.67,0,0,1,.75,2V65h-.75Z"/><path class="cls-2" d="M229.19,14.39a.59.59,0,0,0,.16-.48c-.32-1.76-.32-3.2-.48-4.8H229l-.8-1.27L217.52,15c.64,1.92,1.92,4,2.72,5.92h0l8.95-6.56Z"/><path class="cls-2" d="M228.23,40c.8-1,1.76-1.76,2.72-2.72h0l1-.8,1.12-.8,1.12-.8,1.28-1,1.12-.64,1.44-.8,1.43-.8L241,31l.16-.16-2.56-4.64a32.2,32.2,0,0,1-3.35,3.36h0L233,27.34l-1.28-1.6A18.77,18.77,0,0,0,231,24h0l-9.12,5.6,5.92,10.71.48-.31Z"/><path class="cls-2" d="M229.51,23.18,221,22.87a7.1,7.1,0,0,1,0,3.67,8,8,0,0,1-.48,2.24h0l8.95-5.6Z"/><path class="cls-2" d="M229.19,16.15l-7.36,5.44,8.16.32c-.16-.49-.16-1-.32-1.6h0l-.32-1.92a11.33,11.33,0,0,1-.16-2.24Z"/><path class="cls-2" d="M253,13.27c-.17-1.12-1.28-1.6-2.24-2.08,2.24-.64,4.31-1,4.79-1.6.16-.16-.32-.8-1.44-1.75h0l11.68-.16c4.15,0,9.27-3.84,9.43-7.68a13.25,13.25,0,0,1-4.64,1.6h0L246,1.28c-4.32-.48-9.11,0-11.51,1.44-3.68,2.72-3.36,6.87-2.72,11-.48,4.64.64,9.91,3.52,12.47a10.44,10.44,0,0,0,3.35-5.75,3.87,3.87,0,0,0,2.24,1.59,11.58,11.58,0,0,0,.64-4.63,4.29,4.29,0,0,0,2.08,1.6,17.15,17.15,0,0,0,1-6.08,9.38,9.38,0,0,0,8.48.32Zm-15.51,3.84c-1-.48-1.76-1.28-2.89-1.76A6.13,6.13,0,0,0,234,12a7.84,7.84,0,0,0,3.84,1.28,10.23,10.23,0,0,0-.32,3.84Zm7-8.95c-1,1.43-2.08,1.75-3.84,1.43a4.63,4.63,0,0,1-4.95-.16c1.59-.64,3-1.43,3.67-2.72,2.08.48,3.68.48,4.32-1.59a5.11,5.11,0,0,0,4.8.16c-.48,1.75-1.76,2.72-4,2.88Z"/><path class="cls-2" d="M241.66,32.62l-1.44.8-1.44.48-1.27.8-1.12.8-1.12.8-1.28.79-.8.8-1.12.65-1.76,1.75-1.76,1.76c-2.08,2.24-4.32,4.48-6.56,6.72h0l-1.59,1.76-1,.8-1,.79-1,1-1,.65-1.28.79-1,.81-1.44.47-1.12.8-1.6.64-1.12.64L210.65,60c15.82-6.56,16.62-17.91,32.93-25.26h0l-1.44-2.24-.48.16Z"/><path class="cls-2" d="M210.8,55l1.44-.64,1-.79,1.28-.49,1-.79,1.12-.8.8-.81,1.92-1.43,1.6-1.6c1.92-1.92,3.67-4.16,5.59-6.08h0l.32-.31-6.55-11.68c-2.08,4.48-7.36,11.19-8,18.23-2.88,2.24-6.71,4.8-4.31,8.47h.16l1.44-.64L210.8,55Z"/><path class="cls-3" d="M.49,47.16,7.43,17.7A1.25,1.25,0,0,1,7.81,17a1.18,1.18,0,0,1,.75-.2H28.24a19.65,19.65,0,0,1,4.41.46,10.42,10.42,0,0,1,3.2,1.25,7.59,7.59,0,0,1,2.09,1.88,7,7,0,0,1,1.17,2.31,9.54,9.54,0,0,1,.35,2.62,13.28,13.28,0,0,1-.15,1.94,14.91,14.91,0,0,1-.55,2.36,13.52,13.52,0,0,1-1.07,2.57,11.79,11.79,0,0,1-1.82,2.46,12,12,0,0,1-2.66,2.13,14.18,14.18,0,0,1-3.74,1.44,20.93,20.93,0,0,1-4.92.55h-7.1c-.48,0-.77.27-.89.82l-1.78,7.55a1.12,1.12,0,0,1-.43.62,1.13,1.13,0,0,1-.68.28H1.16a.64.64,0,0,1-.54-.28.81.81,0,0,1-.15-.46A.44.44,0,0,1,.49,47.16ZM18.1,33.09a2,2,0,0,0,0,.31c0,.34.17.5.52.5H19.9c.27,0,.6,0,1-.06a3.16,3.16,0,0,0,.83-.17,3.29,3.29,0,0,0,.55-.35,1.38,1.38,0,0,0,.46-.56,5.15,5.15,0,0,0,.28-.84l1.83-7.77a4.36,4.36,0,0,0,.13-1,1.16,1.16,0,0,0-.39-1,6.25,6.25,0,0,0-3-.45.8.8,0,0,0-.9.66Z"/><path class="cls-3" d="M37.74,47.16,44.68,17.7a1.32,1.32,0,0,1,.38-.69,1.22,1.22,0,0,1,.75-.2H65.49a19.52,19.52,0,0,1,4.41.46,10.42,10.42,0,0,1,3.2,1.25,7.45,7.45,0,0,1,2.09,1.88,7,7,0,0,1,1.17,2.31,9.54,9.54,0,0,1,.35,2.62,16.63,16.63,0,0,1-.13,1.94A15.55,15.55,0,0,1,75,32.16a12,12,0,0,1-1.78,2.44,11.41,11.41,0,0,1-2.58,2.1,1,1,0,0,0-.48,1.15l2,9.27c.1.62-.13.93-.67.93h-13a1.11,1.11,0,0,1-.67-.23,1.06,1.06,0,0,1-.39-.66l-1.65-7.58c0-.19-.07-.33-.1-.42a.56.56,0,0,0-.18-.26.44.44,0,0,0-.32-.12H54.7c-.47,0-.77.27-.89.82L52,47.15a1.1,1.1,0,0,1-.42.62,1.18,1.18,0,0,1-.68.28H38.41a.64.64,0,0,1-.54-.28.81.81,0,0,1-.15-.46A1,1,0,0,1,37.74,47.16ZM55.36,33.09a1.32,1.32,0,0,0,0,.31c0,.34.18.5.53.5h1.31c.27,0,.6,0,1-.06a3.16,3.16,0,0,0,.83-.17,3.79,3.79,0,0,0,.56-.35,1.44,1.44,0,0,0,.45-.56,6.23,6.23,0,0,0,.29-.84l1.83-7.77a5,5,0,0,0,.13-1,1.13,1.13,0,0,0-.4-1,6.25,6.25,0,0,0-3-.45.78.78,0,0,0-.89.66Z"/><path class="cls-3" d="M76,47.16l7-29.46A1.25,1.25,0,0,1,83.3,17a1.18,1.18,0,0,1,.75-.2h23.76a.65.65,0,0,1,.52.29.86.86,0,0,1,.17.45.89.89,0,0,1,0,.15l-.89,3.77a1,1,0,0,1-.42.61,1.12,1.12,0,0,1-.68.28H97a1.09,1.09,0,0,0-.66.28,1,1,0,0,0-.42.61l-1.28,5.41q-.06.54.54.54H101a.63.63,0,0,1,.53.29.73.73,0,0,1,.14.6l-.84,3.77a1.33,1.33,0,0,1-1.11.89H94c-.45,0-.72.16-.8.48l-1.59,6.6c-.08.45.08.67.48.67h9.64a.6.6,0,0,1,.52.29.76.76,0,0,1,.13.6l-.89,3.77a1,1,0,0,1-.42.61,1.12,1.12,0,0,1-.68.28H76.64a.64.64,0,0,1-.54-.28.81.81,0,0,1-.15-.46A.44.44,0,0,1,76,47.16Z"/><path class="cls-3" d="M104.92,47.16l6.94-29.46a1.06,1.06,0,0,1,1.13-.89h12.55a1.06,1.06,0,0,1,1.11.89l3.64,15.4,3.62-15.4a1,1,0,0,1,1.1-.89h5.33a.64.64,0,0,1,.51.28,1,1,0,0,1,.18.46,1,1,0,0,1,0,.15l-7,29.46a1,1,0,0,1-1.1.89H120.39a1.06,1.06,0,0,1-1.13-.89l-3.64-15.41L112,47.16a1,1,0,0,1-1.1.89h-5.31a.66.66,0,0,1-.54-.28.81.81,0,0,1-.15-.46A1,1,0,0,1,104.92,47.16Z"/><path class="cls-3" d="M138.93,45l1.47-3a.85.85,0,0,1,.76-.54,1.27,1.27,0,0,1,.56.15,13.09,13.09,0,0,0,5.63,1.65,2.76,2.76,0,0,0,2-.56,2.12,2.12,0,0,0,.58-1.63,6.64,6.64,0,0,0-.7-2.9,16.18,16.18,0,0,0-1.67-2.8c-.66-.88-1.32-1.79-2-2.74a14.91,14.91,0,0,1-1.69-3.26,10.79,10.79,0,0,1-.69-3.81,7.75,7.75,0,0,1,3.9-6.85q3.9-2.49,11.18-2.49a25,25,0,0,1,6,.64,15.37,15.37,0,0,1,4.57,2,1,1,0,0,1,.48.81,1.31,1.31,0,0,1-.2.62l-1.73,2.71a.68.68,0,0,1-.46.3,1,1,0,0,1-.54,0,1.84,1.84,0,0,1-.43-.17,9.78,9.78,0,0,0-4.83-1.56c-1.72,0-2.58.72-2.58,2.15a5.64,5.64,0,0,0,.78,2.68,21.43,21.43,0,0,0,1.88,2.84c.74.94,1.48,1.93,2.22,3a15.61,15.61,0,0,1,1.9,3.64,12,12,0,0,1,.78,4.25q0,8.72-13.84,8.71a32.8,32.8,0,0,1-12.83-2.36c-.46-.19-.69-.46-.69-.8A1.22,1.22,0,0,1,138.93,45Z"/><path class="cls-3" d="M165.05,47.77a.59.59,0,0,1-.05-.22.75.75,0,0,1,.13-.39L183,17.62a1.51,1.51,0,0,1,1.41-.89H195a1,1,0,0,1,.68.24.86.86,0,0,1,.3.65l3.1,29.54a.87.87,0,0,1-.23.61.75.75,0,0,1-.58.28H186.08a.89.89,0,0,1-.68-.25,1,1,0,0,1-.3-.64l-.36-3.33a.66.66,0,0,0-.74-.65h-9.47a1.17,1.17,0,0,0-1.06.65l-2,3.33a1.64,1.64,0,0,1-1.41.89H165.5A.44.44,0,0,1,165.05,47.77Zm12.78-10.85a.83.83,0,0,0-.16.41c0,.17.14.26.41.26h5.12q.6,0,.6-.57v-.1L183,29.16c0-.2-.1-.3-.23-.3l0,0-.36.32Z"/><path class="cls-3" d="M254.59,47.16l7-29.46a1.25,1.25,0,0,1,.37-.69,1.22,1.22,0,0,1,.75-.2h19.78q4.89,0,7.28,1.86A6.32,6.32,0,0,1,292.11,24a6.64,6.64,0,0,1-1.18,3.88,7.59,7.59,0,0,1-3.32,2.64l-.17.07a.19.19,0,0,0-.1.05.07.07,0,0,0,0,.07l.06.07.16.09A5.78,5.78,0,0,1,291,36.42a16.08,16.08,0,0,1-.1,1.84,11.8,11.8,0,0,1-.5,2.1,11.18,11.18,0,0,1-1,2.22,9.6,9.6,0,0,1-1.73,2.07,10.84,10.84,0,0,1-2.59,1.76,15.08,15.08,0,0,1-3.67,1.18,23.77,23.77,0,0,1-4.89.46H255.26a.66.66,0,0,1-.54-.28.81.81,0,0,1-.15-.46A1,1,0,0,1,254.59,47.16ZM270,42.37a1.32,1.32,0,0,0-.05.31.46.46,0,0,0,.52.5c.73,0,1.24,0,1.55,0s.67,0,1.08-.1a1.79,1.79,0,0,0,.89-.31,2.48,2.48,0,0,0,.52-.58,3,3,0,0,0,.4-1l1.56-6.39a3.62,3.62,0,0,0,.13-.91,1.19,1.19,0,0,0-.47-1.08,5.9,5.9,0,0,0-3-.45.79.79,0,0,0-.89.67Zm3.79-15.7a1.33,1.33,0,0,0-.05.3c0,.34.18.5.52.5a9.46,9.46,0,0,0,3.14-.36,2.09,2.09,0,0,0,1.22-1.63l.3-1.34a4.36,4.36,0,0,0,.13-1,1.21,1.21,0,0,0-.39-1,5.62,5.62,0,0,0-3-.45.78.78,0,0,0-.88.67Z"/><path class="cls-3" d="M291.32,47.16l.89-3.77a1.17,1.17,0,0,1,.35-.63,1.09,1.09,0,0,1,.76-.26h4.22a.94.94,0,0,0,.58-.14.91.91,0,0,0,.27-.53L302.83,23a.8.8,0,0,0,0-.53c-.07-.09-.23-.14-.49-.14h-3.47a.65.65,0,0,1-.55-.24.76.76,0,0,1-.1-.65l.89-3.77a1,1,0,0,1,1.11-.89h17.56a.68.68,0,0,1,.59.24.78.78,0,0,1,.06.65l-5.76,24.13c-.06.26-.05.44,0,.53s.25.14.51.14H318c.57,0,.8.3.67.89l-.89,3.77a1,1,0,0,1-.36.63,1.12,1.12,0,0,1-.77.26H292C291.42,48.05,291.19,47.75,291.32,47.16Z"/></g></g></svg>