<svg xmlns="http://www.w3.org/2000/svg" viewBox="0 0 320.3 68.55"><defs><style>.cls-1{font-size:15px;fill:#6f8296;font-family:DINPro-Light, DINPro;letter-spacing:0.03em;}.cls-2{letter-spacing:0.02em;}.cls-3{letter-spacing:0.02em;}.cls-4{letter-spacing:0.02em;}.cls-5{fill:#fee000;fill-rule:evenodd;}.cls-6{fill:#0b3b75;}</style></defs><title>prensa-b1-azul</title><g id="Layer_2" data-name="Layer 2"><g id="Layer_1-2" data-name="Layer 1"><text class="cls-1" transform="translate(0 65)">Notifi<tspan class="cls-2" x="37.6" y="0">c</tspan><tspan x="45.31" y="0">ation Sy</tspan><tspan class="cls-3" x="100.08" y="0">s</tspan><tspan class="cls-4" x="107.71" y="0">t</tspan><tspan x="112.92" y="0">em</tspan></text><path class="cls-5" d="M230.84,14.39a.59.59,0,0,0,.16-.48c-.32-1.76-.32-3.2-.48-4.8h.16l-.8-1.27L219.17,15c.64,1.92,1.92,4,2.72,5.92h0l9-6.56Z"/><path class="cls-5" d="M229.88,40c.8-1,1.76-1.76,2.72-2.72h0l1-.8,1.12-.8,1.12-.8,1.28-1,1.12-.64,1.44-.8,1.43-.8,1.6-.64.16-.16-2.56-4.64a32.2,32.2,0,0,1-3.35,3.36h0l-2.24-2.24-1.28-1.6a18.77,18.77,0,0,0-.8-1.76h0l-9.12,5.6,5.92,10.71.48-.31Z"/><path class="cls-5" d="M231.16,23.18l-8.47-.31a7.1,7.1,0,0,1,0,3.67,8,8,0,0,1-.48,2.24h0l8.95-5.6Z"/><path class="cls-5" d="M230.84,16.15l-7.36,5.44,8.16.32c-.16-.49-.16-1-.32-1.6h0L231,18.39a11.33,11.33,0,0,1-.16-2.24Z"/><path class="cls-5" d="M254.67,13.27c-.17-1.12-1.28-1.6-2.24-2.08,2.24-.64,4.31-1,4.79-1.6.16-.16-.32-.8-1.44-1.75h0l11.68-.16c4.15,0,9.27-3.84,9.43-7.68a13.25,13.25,0,0,1-4.64,1.6h0l-24.62-.32c-4.32-.48-9.11,0-11.51,1.44-3.68,2.72-3.36,6.87-2.72,11-.48,4.64.64,9.91,3.52,12.47a10.44,10.44,0,0,0,3.35-5.75,3.87,3.87,0,0,0,2.24,1.59,11.58,11.58,0,0,0,.64-4.63,4.29,4.29,0,0,0,2.08,1.6,17.15,17.15,0,0,0,1-6.08,9.38,9.38,0,0,0,8.48.32Zm-15.51,3.84c-1-.48-1.76-1.28-2.89-1.76a6.13,6.13,0,0,0-.63-3.36,7.84,7.84,0,0,0,3.84,1.28,10.23,10.23,0,0,0-.32,3.84Zm7-8.95c-1,1.43-2.08,1.75-3.84,1.43a4.63,4.63,0,0,1-4.95-.16c1.59-.64,3-1.43,3.67-2.72,2.08.48,3.68.48,4.32-1.59a5.11,5.11,0,0,0,4.8.16c-.48,1.75-1.76,2.72-4,2.88Z"/><path class="cls-5" d="M243.31,32.62l-1.44.8-1.44.48-1.27.8-1.12.8-1.12.8-1.28.79-.8.8-1.12.65L232,40.29l-1.76,1.76c-2.08,2.24-4.32,4.48-6.56,6.72h0l-1.59,1.76-1,.8-1,.79-1,1-1,.65-1.28.79-1,.81-1.44.47-1.12.8-1.6.64-1.12.64,1.6,2.08c15.83-6.56,16.63-17.91,32.94-25.26h0l-1.44-2.24-.48.16Z"/><path class="cls-5" d="M212.45,55l1.44-.64,1-.79,1.28-.49,1-.79,1.12-.8.8-.81,1.92-1.43,1.6-1.6c1.92-1.92,3.67-4.16,5.59-6.08h0l.32-.31-6.55-11.68c-2.08,4.48-7.36,11.19-8,18.23-2.88,2.24-6.71,4.8-4.31,8.47h.16l1.44-.64,1.27-.64Z"/><path class="cls-6" d="M2.14,47.16,9.08,17.7A1.25,1.25,0,0,1,9.46,17a1.18,1.18,0,0,1,.75-.2H29.89a19.65,19.65,0,0,1,4.41.46,10.42,10.42,0,0,1,3.2,1.25,7.59,7.59,0,0,1,2.09,1.88,7,7,0,0,1,1.17,2.31,9.54,9.54,0,0,1,.35,2.62A13.28,13.28,0,0,1,41,27.27a14.91,14.91,0,0,1-.55,2.36,13.52,13.52,0,0,1-1.07,2.57,11.79,11.79,0,0,1-1.82,2.46,12,12,0,0,1-2.66,2.13,14.18,14.18,0,0,1-3.74,1.44,20.93,20.93,0,0,1-4.92.55H19.1c-.48,0-.77.27-.89.82l-1.78,7.55a1.12,1.12,0,0,1-.43.62,1.13,1.13,0,0,1-.68.28H2.81a.64.64,0,0,1-.54-.28.81.81,0,0,1-.15-.46A.44.44,0,0,1,2.14,47.16ZM19.75,33.09a2,2,0,0,0,0,.31c0,.34.17.5.52.5h1.32c.27,0,.6,0,1-.06a3.16,3.16,0,0,0,.83-.17,3.75,3.75,0,0,0,.55-.35,1.38,1.38,0,0,0,.46-.56,5.15,5.15,0,0,0,.28-.84l1.83-7.77a4.36,4.36,0,0,0,.13-1,1.16,1.16,0,0,0-.39-1,6.25,6.25,0,0,0-3-.45.8.8,0,0,0-.9.66Z"/><path class="cls-6" d="M39.39,47.16,46.33,17.7a1.32,1.32,0,0,1,.38-.69,1.22,1.22,0,0,1,.75-.2H67.14a19.52,19.52,0,0,1,4.41.46,10.42,10.42,0,0,1,3.2,1.25,7.45,7.45,0,0,1,2.09,1.88A7,7,0,0,1,78,22.71a9.54,9.54,0,0,1,.35,2.62,16.63,16.63,0,0,1-.13,1.94,15.55,15.55,0,0,1-1.59,4.89,12,12,0,0,1-1.78,2.44,11.41,11.41,0,0,1-2.58,2.1,1,1,0,0,0-.48,1.15l2,9.27c.1.62-.13.93-.67.93H60.12a1.11,1.11,0,0,1-.67-.23,1.06,1.06,0,0,1-.39-.66l-1.65-7.58c0-.19-.08-.33-.1-.42a.56.56,0,0,0-.18-.26.44.44,0,0,0-.32-.12h-.46c-.47,0-.77.27-.89.82l-1.78,7.55a1.1,1.1,0,0,1-.42.62,1.18,1.18,0,0,1-.68.28H40.06a.64.64,0,0,1-.54-.28.81.81,0,0,1-.15-.46A1,1,0,0,1,39.39,47.16ZM57,33.09a1.32,1.32,0,0,0,0,.31c0,.34.18.5.53.5H58.8c.27,0,.6,0,1-.06a3.16,3.16,0,0,0,.83-.17,3.79,3.79,0,0,0,.56-.35,1.44,1.44,0,0,0,.45-.56,6.23,6.23,0,0,0,.29-.84l1.83-7.77a5,5,0,0,0,.13-1,1.13,1.13,0,0,0-.4-1,6.25,6.25,0,0,0-3-.45.78.78,0,0,0-.89.66Z"/><path class="cls-6" d="M77.62,47.16,84.57,17.7A1.25,1.25,0,0,1,85,17a1.18,1.18,0,0,1,.75-.2h23.76a.65.65,0,0,1,.52.29.86.86,0,0,1,.17.45.89.89,0,0,1,0,.15l-.89,3.77a1,1,0,0,1-.42.61,1.12,1.12,0,0,1-.68.28H98.69a1.09,1.09,0,0,0-.66.28,1,1,0,0,0-.42.61l-1.28,5.41q-.06.54.54.54h5.81a.63.63,0,0,1,.53.29.73.73,0,0,1,.14.6l-.84,3.77a1.33,1.33,0,0,1-1.11.89H95.62c-.45,0-.72.16-.8.48l-1.59,6.6c-.08.45.08.67.48.67h9.64a.6.6,0,0,1,.52.29.76.76,0,0,1,.13.6l-.89,3.77a1,1,0,0,1-.42.61,1.12,1.12,0,0,1-.68.28H78.29a.64.64,0,0,1-.54-.28.81.81,0,0,1-.15-.46A.44.44,0,0,1,77.62,47.16Z"/><path class="cls-6" d="M106.57,47.16l6.94-29.46a1.06,1.06,0,0,1,1.13-.89h12.55a1.06,1.06,0,0,1,1.11.89l3.64,15.4,3.62-15.4a1,1,0,0,1,1.1-.89H142a.64.64,0,0,1,.51.28,1,1,0,0,1,.18.46,1,1,0,0,1,0,.15l-7,29.46a1,1,0,0,1-1.1.89H122a1.06,1.06,0,0,1-1.13-.89l-3.64-15.41-3.62,15.41a1,1,0,0,1-1.1.89h-5.31a.66.66,0,0,1-.54-.28.81.81,0,0,1-.15-.46A1,1,0,0,1,106.57,47.16Z"/><path class="cls-6" d="M140.58,45l1.47-3a.85.85,0,0,1,.76-.54,1.27,1.27,0,0,1,.56.15A13.09,13.09,0,0,0,149,43.18a2.76,2.76,0,0,0,2-.56,2.12,2.12,0,0,0,.58-1.63,6.64,6.64,0,0,0-.7-2.9,16.18,16.18,0,0,0-1.67-2.8c-.66-.88-1.32-1.79-2-2.74a14.91,14.91,0,0,1-1.69-3.26,10.79,10.79,0,0,1-.69-3.81,7.75,7.75,0,0,1,3.9-6.85q3.9-2.49,11.18-2.49a25,25,0,0,1,6,.64,15.37,15.37,0,0,1,4.57,2,1,1,0,0,1,.48.81,1.31,1.31,0,0,1-.2.62L169,22.9a.68.68,0,0,1-.46.3,1,1,0,0,1-.54,0,1.84,1.84,0,0,1-.43-.17,9.78,9.78,0,0,0-4.83-1.56c-1.72,0-2.58.72-2.58,2.15A5.64,5.64,0,0,0,161,26.3a21.43,21.43,0,0,0,1.88,2.84c.74.94,1.48,1.93,2.22,3a15.61,15.61,0,0,1,1.9,3.64,12,12,0,0,1,.78,4.25q0,8.72-13.84,8.71a32.8,32.8,0,0,1-12.83-2.36c-.46-.19-.69-.46-.69-.8A1.22,1.22,0,0,1,140.58,45Z"/><path class="cls-6" d="M166.7,47.77a.59.59,0,0,1,0-.22.75.75,0,0,1,.13-.39l17.89-29.54a1.51,1.51,0,0,1,1.41-.89h10.57a1,1,0,0,1,.68.24.86.86,0,0,1,.3.65l3.1,29.54a.87.87,0,0,1-.23.61.75.75,0,0,1-.58.28H187.73a.89.89,0,0,1-.68-.25,1,1,0,0,1-.3-.64l-.36-3.33a.66.66,0,0,0-.74-.65h-9.47a1.17,1.17,0,0,0-1.06.65l-2,3.33a1.61,1.61,0,0,1-1.4.89h-4.53A.44.44,0,0,1,166.7,47.77Zm12.78-10.85a.83.83,0,0,0-.16.41c0,.17.14.26.41.26h5.12q.6,0,.6-.57v-.1l-.78-7.76c0-.2-.1-.3-.23-.3l0,0-.36.32Z"/><path class="cls-6" d="M256.24,47.16l7-29.46a1.25,1.25,0,0,1,.37-.69,1.22,1.22,0,0,1,.75-.2H284.1q4.89,0,7.28,1.86A6.32,6.32,0,0,1,293.76,24a6.64,6.64,0,0,1-1.18,3.88,7.59,7.59,0,0,1-3.32,2.64l-.17.07a.19.19,0,0,0-.1.05.07.07,0,0,0,0,.07l.06.07.16.09a5.78,5.78,0,0,1,3.46,5.59,16.08,16.08,0,0,1-.1,1.84,11.8,11.8,0,0,1-.5,2.1,11.18,11.18,0,0,1-1,2.22,9.6,9.6,0,0,1-1.73,2.07,10.84,10.84,0,0,1-2.59,1.76,15.08,15.08,0,0,1-3.67,1.18,23.77,23.77,0,0,1-4.89.46H256.91a.66.66,0,0,1-.54-.28.81.81,0,0,1-.15-.46A1,1,0,0,1,256.24,47.16Zm15.45-4.79a1.32,1.32,0,0,0-.05.31.46.46,0,0,0,.52.5c.73,0,1.24,0,1.55,0s.67,0,1.08-.1a1.79,1.79,0,0,0,.89-.31,2.48,2.48,0,0,0,.52-.58,3,3,0,0,0,.4-1l1.56-6.39a3.62,3.62,0,0,0,.13-.91,1.19,1.19,0,0,0-.47-1.08,5.9,5.9,0,0,0-3-.45.79.79,0,0,0-.89.67Zm3.79-15.7a1.33,1.33,0,0,0-.05.3c0,.34.18.5.52.5a9.46,9.46,0,0,0,3.14-.36,2.11,2.11,0,0,0,1.22-1.63l.3-1.34a4.36,4.36,0,0,0,.13-1,1.21,1.21,0,0,0-.39-1,5.62,5.62,0,0,0-3-.45.78.78,0,0,0-.88.67Z"/><path class="cls-6" d="M293,47.16l.89-3.77a1.17,1.17,0,0,1,.35-.63,1.09,1.09,0,0,1,.76-.26h4.22a.94.94,0,0,0,.58-.14.91.91,0,0,0,.27-.53L304.48,23a.8.8,0,0,0,0-.53c-.07-.09-.23-.14-.49-.14h-3.47a.65.65,0,0,1-.55-.24.76.76,0,0,1-.1-.65l.89-3.77a1,1,0,0,1,1.1-.89h17.57a.68.68,0,0,1,.59.24.78.78,0,0,1,.06.65l-5.76,24.13c-.06.26-.05.44,0,.53s.25.14.51.14h4.75c.57,0,.8.3.67.89l-.89,3.77a1,1,0,0,1-.36.63,1.12,1.12,0,0,1-.77.26h-24.6C293.07,48.05,292.84,47.75,293,47.16Z"/></g></g></svg>